 <svg
      id="hate"
      xmlns="http://www.w3.org/2000/svg"
      viewBox="0 0 128.07 127.89"
    >
      <path
        class="a"
        d="M128.07,64.07c-.5,36.31-28,63.57-64,63.82S-.17,99.33,0,63.29C.17,28.25,29.23-.3,64.43,0A63.88,63.88,0,0,1,128.07,64.07ZM45.32,38.54c-2.44.36-4.63,1.12-6,3.68a6.39,6.39,0,0,0,.94,7.83A143,143,0,0,0,50.42,60.36c2.73,2.48,3.44,4.31.2,7a98.44,98.44,0,0,0-9.52,9.53c-3.62,4-3.66,7.48-.47,10.59,2.82,2.76,7.12,2.54,10.7-.79,3.05-2.83,5.91-5.86,8.85-8.8,2.58-2.57,5.16-2.53,7.73,0,2.83,2.81,5.62,5.67,8.52,8.42,3.87,3.68,8.08,4.08,11,1.15,3.23-3.21,3-6.85-.83-11C83.57,73.21,80.44,70,77.1,67c-2.37-2.13-2.71-3.65-.13-5.91,3.24-2.85,6.15-6.08,9.2-9.15,4.17-4.2,4.66-8,1.45-11.34-2.93-3-7.58-2.61-11.49,1.19-3.34,3.25-6.66,6.52-9.85,9.91-1.64,1.74-2.85,1.73-4.49,0-3.32-3.5-6.84-6.81-10.21-10.26A9,9,0,0,0,45.32,38.54Z"
      />
      <path
        d="M45.32,38.54a9,9,0,0,1,6.26,2.87c3.37,3.45,6.89,6.76,10.21,10.26,1.64,1.73,2.85,1.74,4.49,0,3.19-3.39,6.51-6.66,9.85-9.91C80,38,84.69,37.52,87.62,40.57c3.21,3.34,2.72,7.14-1.45,11.34-3,3.07-6,6.3-9.2,9.15-2.58,2.26-2.24,3.78.13,5.91,3.34,3,6.47,6.24,9.53,9.52,3.87,4.16,4.06,7.8.83,11-2.95,2.93-7.16,2.53-11-1.15-2.9-2.75-5.69-5.61-8.52-8.42-2.57-2.54-5.15-2.58-7.73,0-2.94,2.94-5.8,6-8.85,8.8-3.58,3.33-7.88,3.55-10.7.79-3.19-3.11-3.15-6.6.47-10.59a98.44,98.44,0,0,1,9.52-9.53c3.24-2.72,2.53-4.55-.2-7A143,143,0,0,1,40.28,50.05a6.39,6.39,0,0,1-.94-7.83C40.69,39.66,42.88,38.9,45.32,38.54Z"
      />
    </svg>