<svg
      id="like"
      xmlns="http://www.w3.org/2000/svg"
      viewBox="0 0 128.06 127.99"
    >
      <path
        class="a"
        d="M128.06,63.83a63.65,63.65,0,0,1-64,64.16A63.57,63.57,0,0,1,0,64a64,64,0,0,1,128.06-.13ZM96,56.53c0-5.82-3.9-13.3-10.19-16.05-6.9-3-13.67-2.67-19.37,2.82-2,1.9-3.16,1.41-4.93-.17-2.34-2.08-4.86-3.89-8.25-4.24-9.13-.92-15.31,2.3-19.11,10.25-3.89,8.11-2.42,17.27,4,23.34,7.5,7,15.22,13.88,22.77,20.89,2.06,1.92,3.76,2.27,6,.21C74.36,86.7,82,80,89.39,73.09,93.57,69.21,96.06,64.45,96,56.53Z"
      />
      <path
        d="M96,56.53c.08,7.92-2.41,12.68-6.59,16.56C82,80,74.36,86.7,66.93,93.58c-2.23,2.06-3.93,1.71-6-.21-7.55-7-15.27-13.84-22.77-20.89-6.46-6.07-7.93-15.23-4-23.34,3.8-8,10-11.17,19.11-10.25,3.39.35,5.91,2.16,8.25,4.24,1.77,1.58,2.95,2.07,4.93.17,5.7-5.49,12.47-5.84,19.37-2.82C92.08,43.23,96,50.71,96,56.53Z"
      />
    </svg>